<?xml version="1.0" encoding="UTF-8"?>
<!-- Generator: visioncortex VTracer 0.6.2 -->
<svg version="1.1" xmlns="http://www.w3.org/2000/svg" width="1280" height="720">
<path d="M0 0 C422.4 0 844.8 0 1280 0 C1280 237.6 1280 475.2 1280 720 C857.6 720 435.2 720 0 720 C0 482.4 0 244.8 0 0 Z " fill="#FAFDFF" transform="translate(0,0)"/>
<path d="M0 0 C2.86477513 3.42857477 5.20603564 6.87938938 7.3984375 10.76953125 C8.03523438 11.89294922 8.67203125 13.01636719 9.328125 14.17382812 C9.82795898 15.0624353 9.82795898 15.0624353 10.33789062 15.96899414 C12.11997861 19.13673104 13.91650744 22.29627502 15.7109375 25.45703125 C16.07419128 26.09778595 16.43744507 26.73854065 16.81170654 27.39871216 C20.15788673 33.29515285 23.57039684 39.15171807 27 45 C32.14238578 53.77943082 37.21261479 62.59761575 42.25 71.4375 C46.85189689 79.51241186 51.4774824 87.57033742 56.21289062 95.56787109 C59.94006675 101.87172724 63.59560083 108.2162381 67.25 114.5625 C72.14157929 123.05649094 77.05387252 131.53765486 82 140 C90.02289258 153.73042338 97.95858364 167.51078149 105.89550781 181.29101562 C113.13312014 193.85512243 120.39309961 206.40522275 127.70874023 218.92407227 C132.20471763 226.62317046 136.67118047 234.3389679 141.125 242.0625 C141.75277344 243.15111328 142.38054687 244.23972656 143.02734375 245.36132812 C143.61902344 246.38806641 144.21070313 247.41480469 144.8203125 248.47265625 C145.37493164 249.43187988 145.92955078 250.39110352 146.50097656 251.37939453 C147.41993596 252.98592713 148.32610499 254.59996474 149.20996094 256.22607422 C150.9289323 259.38185845 151.94056871 260.96037914 155 263 C155 413.15 155 563.3 155 718 C-267.4 718 -689.8 718 -1125 718 C-1125 656.95 -1125 595.9 -1125 533 C-854.73 532.67 -584.46 532.34 -306 532 C-305.34 530.35 -304.68 528.7 -304 527 C-303.0482031 525.22892627 -302.0622578 523.47596209 -301.05078125 521.73828125 C-300.16120728 520.20373291 -300.16120728 520.20373291 -299.25366211 518.63818359 C-298.61307861 517.54070801 -297.97249512 516.44323242 -297.3125 515.3125 C-296.63840526 514.15205754 -295.96466475 512.99140926 -295.29125977 511.83056641 C-293.89179069 509.41865875 -292.49080029 507.00764414 -291.08886719 504.59716797 C-288.4786543 500.10606194 -285.88740337 495.60407467 -283.2956543 491.10229492 C-277.32116933 480.7256405 -271.30768352 470.37246257 -265.26708984 460.03417969 C-258.46412377 448.38340815 -251.73357814 436.69096256 -245 425 C-237.12337411 411.32445686 -229.22879908 397.66039042 -221.26708984 384.03417969 C-214.46412377 372.38340815 -207.73357814 360.69096256 -201 349 C-193.13222095 335.3398169 -185.24829048 321.69002945 -177.29345703 308.08032227 C-172.1229169 299.22755283 -166.99854106 290.3485288 -161.88476562 281.46289062 C-161.28986328 280.42970703 -160.69496094 279.39652344 -160.08203125 278.33203125 C-159.29662964 276.96655151 -159.29662964 276.96655151 -158.49536133 275.57348633 C-157.48647756 273.83721795 -156.45267145 272.11522578 -155.39624023 270.4074707 C-154.18033433 268.31094193 -153.33792262 266.4355834 -152.578125 264.1484375 C-151.07536038 259.99156533 -149.05222471 256.38564547 -146.75 252.625 C-145.85285078 251.12969496 -144.95711079 249.63354386 -144.0625 248.13671875 C-143.32966797 246.913479 -143.32966797 246.913479 -142.58203125 245.66552734 C-139.58694813 240.61918206 -136.67451323 235.52495014 -133.75 230.4375 C-128.85910769 221.9431165 -123.94612476 213.46234049 -119 205 C-111.61578129 192.36260666 -104.30509833 179.68324645 -97 167 C-89.12337411 153.32445686 -81.22879908 139.66039042 -73.26708984 126.03417969 C-66.46412377 114.38340815 -59.73357814 102.69096256 -53 91 C-45.12796066 77.33242011 -37.24059156 63.67474271 -29.28027344 50.05834961 C-24.88572513 42.53538415 -20.53250884 34.98916345 -16.1875 27.4375 C-10.88891304 18.23150293 -5.52428481 9.07240269 0 0 Z " fill="#C4E9FB" transform="translate(1125,2)"/>
<path d="M0 0 C2.86477513 3.42857477 5.20603564 6.87938938 7.3984375 10.76953125 C8.03523438 11.89294922 8.67203125 13.01636719 9.328125 14.17382812 C9.66134766 14.76623291 9.99457031 15.3586377 10.33789062 15.96899414 C12.11997861 19.13673104 13.91650744 22.29627502 15.7109375 25.45703125 C16.07419128 26.09778595 16.43744507 26.73854065 16.81170654 27.39871216 C20.15788673 33.29515285 23.57039684 39.15171807 27 45 C32.14238578 53.77943082 37.21261479 62.59761575 42.25 71.4375 C46.85189689 79.51241186 51.4774824 87.57033742 56.21289062 95.56787109 C59.94006675 101.87172724 63.59560083 108.2162381 67.25 114.5625 C72.14157929 123.05649094 77.05387252 131.53765486 82 140 C90.02289258 153.73042338 97.95858364 167.51078149 105.89550781 181.29101562 C113.13312014 193.85512243 120.39309961 206.40522275 127.70874023 218.92407227 C132.20471763 226.62317046 136.67118047 234.3389679 141.125 242.0625 C141.75277344 243.15111328 142.38054687 244.23972656 143.02734375 245.36132812 C143.61902344 246.38806641 144.21070313 247.41480469 144.8203125 248.47265625 C145.65224121 249.9114917 145.65224121 249.9114917 146.50097656 251.37939453 C147.41993596 252.98592713 148.32610499 254.59996474 149.20996094 256.22607422 C150.9289323 259.38185845 151.94056871 260.96037914 155 263 C155.2978719 265.53095873 155.3966966 267.81827537 155.36914349 270.35199928 C155.37260502 271.122517 155.37606655 271.89303471 155.37963298 272.68690145 C155.38764048 275.29614761 155.37406025 277.90485008 155.36076355 280.5140686 C155.36207048 282.39258021 155.36469483 284.27109129 155.36853105 286.14959943 C155.37527002 291.33286611 155.36319666 296.51594841 155.34819686 301.69919157 C155.33528971 307.28066744 155.33962218 312.86213219 155.34190369 318.44361877 C155.3434798 328.12097276 155.33403533 337.79826625 155.31719017 347.47560501 C155.29285045 361.4675524 155.28500006 375.45947042 155.2812262 389.45143668 C155.2746538 412.15026072 155.25469699 434.84904698 155.22631836 457.54785156 C155.19877639 479.60286287 155.17752001 501.65786557 155.16479492 523.71289062 C155.16420305 524.73218921 155.16420305 524.73218921 155.16359923 525.77207968 C155.15964375 532.59606734 155.1558163 539.42005507 155.15208265 546.24404286 C155.12074603 603.49605106 155.06779497 660.74802404 155 718 C148.52968686 718.51116192 142.06460124 718.85873091 135.57861328 719.09863281 C133.37904651 719.19865712 131.1807922 719.33476891 128.98583984 719.50878906 C114.37803334 720.63706126 114.37803334 720.63706126 108 718 C102.67076584 713.27429376 99.79598089 706.85097923 97.04672241 700.39898682 C95.64265555 697.18100099 93.92895339 694.25992778 92.125 691.25 C91.50882813 690.16203125 90.89265625 689.0740625 90.2578125 687.953125 C87.21935481 682.60795483 84.10291692 677.3078993 81 672 C76.69041172 664.62533964 72.40959238 657.23755901 68.1875 649.8125 C65.16302509 644.5196689 62.07557754 639.26322684 59 634 C54.69055304 626.62525605 50.40959336 619.23756074 46.1875 611.8125 C43.16302509 606.5196689 40.07557754 601.26322684 37 596 C32.69291554 588.62929897 28.41306753 581.24637209 24.1953125 573.82421875 C20.55152297 567.44669661 16.81812861 561.12008925 13.09765625 554.78710938 C10.2148034 549.8641338 7.35999553 544.92565331 4.5703125 539.94921875 C4.07547363 539.06967529 3.58063477 538.19013184 3.07080078 537.28393555 C2 535 2 535 2 532 C1.14535156 531.74089844 1.14535156 531.74089844 0.2734375 531.4765625 C-3.15466053 529.25006584 -4.53737679 525.90967983 -6.375 522.375 C-7.26173417 520.72516851 -8.15120242 519.07680445 -9.04296875 517.4296875 C-9.51911621 516.54764648 -9.99526367 515.66560547 -10.48583984 514.75683594 C-13.1259173 509.950039 -15.91009274 505.22834379 -18.6875 500.5 C-23.65705923 492.01820241 -28.5950324 483.51932156 -33.5 475 C-38.30833565 466.65191088 -43.13905753 458.31756695 -48 450 C-56.02281678 436.26953183 -63.95858328 422.48921914 -71.89550781 408.70898438 C-78.56956312 397.12318234 -85.25464084 385.54446647 -92 374 C-98.73674715 362.4702727 -105.41290104 350.90614779 -112.078125 339.33496094 C-114.05044503 335.91246455 -116.02482061 332.49115907 -118 329.0703125 C-119.3125 326.796875 -120.625 324.5234375 -121.9375 322.25 C-122.57494141 321.14599854 -123.21238281 320.04199707 -123.86914062 318.90454102 C-126.91042431 313.63407989 -129.93836178 308.35703129 -132.9375 303.0625 C-135.5632332 298.45167992 -138.26692161 293.91238719 -141.0703125 289.40625 C-142.19279284 287.57371492 -143.31216008 285.73930747 -144.43093872 283.9045105 C-145.17902914 282.68673252 -145.93404292 281.47317778 -146.69625854 280.26419067 C-147.77449802 278.55282601 -148.82713579 276.82541441 -149.87890625 275.09765625 C-150.5035376 274.09226807 -151.12816895 273.08687988 -151.77172852 272.05102539 C-153.33269112 268.17359552 -153.01713279 266.0248506 -152 262 C-150.73168945 259.19946289 -150.73168945 259.19946289 -149.11328125 256.47265625 C-148.51193359 255.44591797 -147.91058594 254.41917969 -147.29101562 253.36132812 C-146.63810547 252.27271484 -145.98519531 251.18410156 -145.3125 250.0625 C-144.62973126 248.90496155 -143.94810916 247.74674606 -143.26757812 246.58789062 C-141.86851904 244.20896111 -140.46350899 241.83371623 -139.05322266 239.46142578 C-136.00283385 234.32669673 -133.00463758 229.16158122 -130 224 C-128.8425146 222.01819022 -127.684962 220.03641969 -126.52734375 218.0546875 C-120.30912254 207.39438413 -114.159525 196.69428091 -108 186 C-100.12337411 172.32445686 -92.22879908 158.66039042 -84.26708984 145.03417969 C-77.46412377 133.38340815 -70.73357814 121.69096256 -64 110 C-56.05595716 96.2074063 -48.09156355 82.42788845 -40.05834961 68.68701172 C-36.3358476 62.31174664 -32.6530284 55.91529671 -29 49.5 C-19.534433 32.88284774 -9.90867557 16.35717872 0 0 Z " fill="#079DDC" transform="translate(1125,2)"/>
<path d="M0 0 C1.88075872 -0.00768982 1.88075872 -0.00768982 3.79951257 -0.015535 C7.27751404 -0.02895085 10.75440683 -0.004955 14.23226702 0.02513337 C17.9834066 0.05103862 21.7344834 0.04227633 25.48568726 0.03771973 C31.98407118 0.03457322 38.48209371 0.05340171 44.98038673 0.08714676 C54.3757689 0.13590438 63.77097629 0.15153492 73.16647127 0.15907471 C88.40984192 0.17220726 103.65301995 0.21213895 118.89628601 0.26889038 C133.70389339 0.32396252 148.51144846 0.36643403 163.31913757 0.39193726 C164.68819812 0.39430177 164.68819812 0.39430177 166.08491645 0.39671405 C170.66368875 0.40454426 175.24246142 0.41212651 179.82123435 0.41958547 C217.80821912 0.48178823 255.79498888 0.58746926 293.78178406 0.7215271 C292.68404545 2.93698984 291.58412259 5.15132356 290.48295593 7.36508179 C290.17605835 7.98503021 289.86916077 8.60497864 289.55296326 9.24371338 C286.70320366 14.9653128 283.5481315 20.47779903 280.28178406 25.9715271 C279.05069419 28.06230733 277.82024773 30.15346652 276.59037781 32.2449646 C275.96244324 33.31069702 275.33450867 34.37642944 274.68754578 35.47445679 C271.54347319 40.83138291 268.44386373 46.21377309 265.34428406 51.5965271 C264.72593689 52.6692688 264.10758972 53.7420105 263.47050476 54.84725952 C260.91984662 59.27265305 258.37063836 63.69888053 255.82182312 68.12533569 C243.03313984 90.33275424 243.03313984 90.33275424 236.61723328 101.19271851 C228.94876681 114.19631357 221.46876392 127.31144558 213.94194031 140.39730835 C212.68044646 142.58884408 211.41872982 144.78025157 210.15678406 146.9715271 C209.23675598 148.56964233 209.23675598 148.56964233 208.29814148 150.20004272 C203.51263803 158.49533765 198.65215434 166.7447259 193.7285614 174.95883179 C193.2227655 175.80735718 192.7169696 176.65588257 192.19584656 177.53012085 C191.52996521 178.64084961 191.52996521 178.64084961 190.85063171 179.77401733 C189.64529178 181.83230598 189.64529178 181.83230598 188.78178406 184.7215271 C87.47178406 184.7215271 -13.83821594 184.7215271 -118.21821594 184.7215271 C-116.57681189 179.79731495 -114.74871359 175.94544778 -112.09321594 171.5965271 C-111.18643487 170.08330117 -110.2816313 168.56888921 -109.37837219 167.05355835 C-108.87708801 166.2126062 -108.37580383 165.37165405 -107.85932922 164.50521851 C-104.69144904 159.13179247 -101.61729992 153.70440572 -98.53071594 148.2840271 C-97.14324566 145.85011914 -95.75509729 143.41659855 -94.36665344 140.98324585 C-93.84703789 140.07250809 -93.84703789 140.07250809 -93.31692505 139.14337158 C-89.7815868 132.95047695 -86.22150021 126.7719365 -82.65571594 120.5965271 C-81.73290833 118.99829102 -81.73290833 118.99829102 -80.79145813 117.36776733 C-78.31627393 113.08227209 -75.83998028 108.79741841 -73.36372375 104.51254272 C-65.94841003 91.67909603 -58.55805355 78.83196604 -51.21226501 65.95861816 C-45.7056847 56.30934699 -40.16899028 46.67777129 -34.60346985 37.06234741 C-31.63853685 31.93599487 -28.69144546 26.80126087 -25.78852844 21.63949585 C-25.24808899 20.68164185 -24.70764954 19.72378784 -24.15083313 18.73690796 C-23.14889916 16.95808256 -22.15175285 15.17654746 -21.16059875 13.39169312 C-20.7129718 12.59819458 -20.26534485 11.80469604 -19.80415344 10.9871521 C-19.42307434 10.30427124 -19.04199524 9.62139038 -18.64936829 8.91781616 C-18.17708801 8.19304077 -17.70480774 7.46826538 -17.21821594 6.7215271 C-16.31444072 5.19090165 -16.31444072 5.19090165 -15.39240742 3.62935448 C-11.39848728 -1.05836158 -5.70081567 -0.08471755 0 0 Z " fill="#8CD7F7" transform="translate(831.2182159423828,535.2784729003906)"/>
<path d="M0 0 C2.86477513 3.42857477 5.20603564 6.87938938 7.3984375 10.76953125 C8.03523438 11.89294922 8.67203125 13.01636719 9.328125 14.17382812 C9.66134766 14.76623291 9.99457031 15.3586377 10.33789062 15.96899414 C12.11997861 19.13673104 13.91650744 22.29627502 15.7109375 25.45703125 C16.07419128 26.09778595 16.43744507 26.73854065 16.81170654 27.39871216 C20.15788673 33.29515285 23.57039684 39.15171807 27 45 C32.14238578 53.77943082 37.21261479 62.59761575 42.25 71.4375 C46.85189689 79.51241186 51.4774824 87.57033742 56.21289062 95.56787109 C59.94006675 101.87172724 63.59560083 108.2162381 67.25 114.5625 C72.14157929 123.05649094 77.05387252 131.53765486 82 140 C90.02289258 153.73042338 97.95858364 167.51078149 105.89550781 181.29101562 C113.13312014 193.85512243 120.39309961 206.40522275 127.70874023 218.92407227 C132.20471763 226.62317046 136.67118047 234.3389679 141.125 242.0625 C141.75277344 243.15111328 142.38054687 244.23972656 143.02734375 245.36132812 C143.61902344 246.38806641 144.21070313 247.41480469 144.8203125 248.47265625 C145.65224121 249.9114917 145.65224121 249.9114917 146.50097656 251.37939453 C147.41993596 252.98592713 148.32610499 254.59996474 149.20996094 256.22607422 C150.9289323 259.38185845 151.94056871 260.96037914 155 263 C154.67 264.32 154.34 265.64 154 267 C53.02 267 -47.96 267 -152 267 C-153 264 -153 264 -151.86694336 261.4699707 C-151.28050049 260.46538818 -150.69405762 259.46080566 -150.08984375 258.42578125 C-149.43685303 257.29575684 -148.7838623 256.16573242 -148.11108398 255.00146484 C-147.38675204 253.7716944 -146.66221888 252.54204245 -145.9375 251.3125 C-145.19839538 250.04170416 -144.46020552 248.77037589 -143.72290039 247.49853516 C-141.84661607 244.26727135 -139.95881903 241.04290803 -138.06738281 237.82049561 C-136.48681147 235.12472128 -134.91532096 232.42368495 -133.34375 229.72265625 C-131.06426539 225.80732528 -128.77988076 221.89491481 -126.4921875 217.984375 C-122.82618398 211.71102211 -119.19129829 205.41993092 -115.5625 199.125 C-114.62954102 197.50658203 -114.62954102 197.50658203 -113.67773438 195.85546875 C-111.78470874 192.57057008 -109.89224402 189.28534897 -108 186 C-100.12337411 172.32445686 -92.22879908 158.66039042 -84.26708984 145.03417969 C-77.46412377 133.38340815 -70.73357814 121.69096256 -64 110 C-56.05595716 96.2074063 -48.09156355 82.42788845 -40.05834961 68.68701172 C-36.3358476 62.31174664 -32.6530284 55.91529671 -29 49.5 C-19.534433 32.88284774 -9.90867557 16.35717872 0 0 Z " fill="#044783" transform="translate(1125,2)"/>
<path d="M0 0 C0.33 0 0.66 0 1 0 C1 147.18 1 294.36 1 446 C-14.51 446 -30.02 446 -46 446 C-58.92957746 424.45070423 -58.92957746 424.45070423 -63.7421875 415.953125 C-66.78064519 410.60795483 -69.89708308 405.3078993 -73 400 C-77.30958828 392.62533964 -81.59040762 385.23755901 -85.8125 377.8125 C-88.83697491 372.5196689 -91.92442246 367.26322684 -95 362 C-99.30944696 354.62525605 -103.59040664 347.23756074 -107.8125 339.8125 C-110.83697491 334.5196689 -113.92442246 329.26322684 -117 324 C-121.30765728 316.62831872 -125.59027995 309.24569723 -129.8046875 301.8203125 C-131.63737246 298.61177022 -133.50858985 295.42662588 -135.3828125 292.2421875 C-135.99769531 291.19546875 -136.61257813 290.14875 -137.24609375 289.0703125 C-138.46155471 287.00327079 -139.68010075 284.93803874 -140.90234375 282.875 C-142.05333053 280.91598413 -143.18440045 278.9451257 -144.29492188 276.96289062 C-145.97604942 273.95662559 -145.97604942 273.95662559 -148.00195312 271.05273438 C-149.91825476 267.97896227 -151.21488293 265.54117586 -152 262 C-150.73210933 256.99524924 -148.07950458 253.00162402 -145.25 248.75 C-144.48416592 247.52270574 -143.72324051 246.292336 -142.96704102 245.05908203 C-141.42141312 242.55043026 -139.85329176 240.05845887 -138.26416016 237.57714844 C-134.98879058 232.44034688 -131.97408801 227.15513951 -128.9375 221.875 C-127.79049671 219.9106202 -126.64205121 217.94708181 -125.4921875 215.984375 C-121.82618398 209.71102211 -118.19129829 203.41993092 -114.5625 197.125 C-113.62954102 195.50658203 -113.62954102 195.50658203 -112.67773438 193.85546875 C-110.78470874 190.57057008 -108.89224402 187.28534897 -107 184 C-99.12337411 170.32445686 -91.22879908 156.66039042 -83.26708984 143.03417969 C-76.46412377 131.38340815 -69.73357814 119.69096256 -63 108 C-55.12337411 94.32445686 -47.22879908 80.66039042 -39.26708984 67.03417969 C-35.01017213 59.743775 -30.77947094 52.43857796 -26.5625 45.125 C-25.94785889 44.05926758 -25.33321777 42.99353516 -24.69995117 41.89550781 C-21.76285619 36.80050804 -18.82894902 31.70370249 -15.90113831 26.60336304 C-14.53493486 24.22402828 -13.16719744 21.84557718 -11.79928589 19.46722412 C-10.83870135 17.7955961 -9.88037822 16.12266921 -8.92211914 14.44970703 C-2.99612329 4.1473783 -2.99612329 4.1473783 0 0 Z " fill="#8CD7F7" transform="translate(1279,274)"/>
<path d="M0 0 C51.15 0 102.3 0 155 0 C155 87.45 155 174.9 155 265 C150.7908495 262.89542475 150.24286477 262.27511784 148.1171875 258.37109375 C147.59527832 257.4277417 147.07336914 256.48438965 146.53564453 255.51245117 C145.98763184 254.49771729 145.43961914 253.4829834 144.875 252.4375 C143.7043189 250.31704875 142.53243603 248.19726056 141.359375 246.078125 C140.78509766 245.03462891 140.21082031 243.99113281 139.61914062 242.91601562 C137.51894556 239.13363778 135.33792396 235.4046887 133.125 231.6875 C128.94518627 224.63546595 124.84032881 217.54178265 120.75 210.4375 C115.85847652 201.94347714 110.94612727 193.46234478 106 185 C97.97710742 171.26957662 90.04141636 157.48921851 82.10449219 143.70898438 C75.43043688 132.12318234 68.74535916 120.54446647 62 109 C55.25298806 97.45270484 48.56660682 85.87097973 41.89111328 74.28222656 C38.1426677 67.7764039 34.38905819 61.27355917 30.63623047 54.77026367 C27.44671205 49.24262719 24.25892179 43.71400619 21.07421875 38.18359375 C19.77868343 35.93487417 18.48311104 33.68617595 17.1875 31.4375 C16.56673584 30.35919922 15.94597168 29.28089844 15.30639648 28.16992188 C12.5088363 23.31758267 9.69879849 18.47430694 6.8359375 13.66015625 C6.36260986 12.86359619 5.88928223 12.06703613 5.40161133 11.24633789 C4.5357448 9.7938606 3.66604464 8.34365882 2.79174805 6.89624023 C0 2.21802943 0 2.21802943 0 0 Z " fill="#4BBAE5" transform="translate(1125,0)"/>
<path d="M0 0 C1.88075698 -0.00206625 1.88075698 -0.00206625 3.79950905 -0.00417423 C5.20222623 -0.00062719 6.60494318 0.00301071 8.00765991 0.00672913 C9.4997374 0.00703532 10.99181502 0.00690221 12.48389244 0.00636387 C16.4887093 0.00613761 20.49349644 0.01194403 24.49830627 0.0189743 C28.2528086 0.02465863 32.0073036 0.02493685 35.7618103 0.02565002 C46.75050241 0.03090261 57.73918896 0.04486369 68.72787476 0.05775452 C105.54349976 0.08869202 105.54349976 0.08869202 143.10287476 0.12025452 C143.10287476 60.18025452 143.10287476 120.24025452 143.10287476 182.12025452 C127.59287476 182.12025452 112.08287476 182.12025452 96.10287476 182.12025452 C83.17329729 160.57095874 83.17329729 160.57095874 78.36068726 152.07337952 C75.32222956 146.72820935 72.20579168 141.42815382 69.10287476 136.12025452 C64.79328647 128.74559416 60.51246714 121.35781353 56.29037476 113.93275452 C53.26589984 108.63992342 50.1784523 103.38348136 47.10287476 98.12025452 C42.7934278 90.74551056 38.51246812 83.35781525 34.29037476 75.93275452 C31.26589984 70.63992342 28.1784523 65.38348136 25.10287476 60.12025452 C20.79872662 52.75457842 16.5227663 45.37610725 12.30599976 37.96009827 C8.59401696 31.46412837 4.80080933 25.01463833 1.02474976 18.55580139 C-0.11278294 16.60955404 -1.24892836 14.66249496 -2.38345337 12.7144928 C-3.31926629 11.1106302 -4.25973649 9.50946261 -5.20767212 7.91273499 C-7.89712524 3.33853769 -7.89712524 3.33853769 -7.89712524 1.12025452 C-5.17672878 -0.23994372 -3.04665863 -0.00256022 0 0 Z " fill="#044783" transform="translate(1136.8971252441406,537.8797454833984)"/>
</svg>
